#!OML:ASF X:\für Bonn\!DataBase\2005_08_12_Daniel\c3d\Daniel.ASF
:FULLY-SPECIFIED
:DEGREES
17
root 0.0844625 16.7958 -1.10137 11.3458 -88.4257 -23.596
lowerback 25.7002 -1.91477 2.74495
upperback 3.05342 -2.28525 -2.33448
thorax -11.122 -1.36104 -3.40021
lowerneck 5.48252 1.78498 -2.03554
upperneck 3.06789 2.18922 0.923174
head 0.0047132 1.04144 0.57822
rclavicle 1.27222e-014 0
rhumerus 58.7279 1.83699 -100.281
rradius 7.51555
rwrist 60.5774
rhand -20.2788 6.54702
rfingers 7.12502
rthumb 6.07068 -23.346
lclavicle 1.27222e-014 0
lhumerus 62.5089 8.51099 110.054
lradius 9.99563
lwrist -83.3908
lhand -15.9739 0.0642678
lfingers 7.12502
lthumb 10.2253 29.7957
rfemur 1.75606 -2.28779 16.4016
rtibia 32.9098
rfoot -25.0724 -3.68315
rtoes -14.9237
lfemur -7.74017 -3.80843 -13.8361
ltibia 43.5121
lfoot -29.0824 4.38821
ltoes -1.96346
18
root 0.101828 16.7495 -1.09858 11.9004 -88.4297 -24.4629
lowerback 26.2934 -1.91456 2.76699
upperback 3.08594 -2.27402 -2.32175
thorax -11.3976 -1.36292 -3.39504
lowerneck 5.67262 1.77522 -2.01763
upperneck 3.00398 2.17212 0.914381
head -0.0452114 1.03248 0.571163
rclavicle 7.15625e-015 -9.54166e-015
rhumerus 58.4934 1.70556 -100.291
rradius 7.51906
rwrist 60.8769
rhand -20.4921 6.56921
rfingers 7.12502
rthumb 5.86473 -23.3296
lclavicle 7.15625e-015 -9.54166e-015
lhumerus 62.1714 8.46792 109.691
lradius 10.2122
lwrist -82.9206
lhand -16.1082 -0.124273
lfingers 7.12502
lthumb 10.0958 29.6135
rfemur 1.37867 -3.22523 16.0441
rtibia 34.0803
rfoot -25.2274 -2.66977
rtoes -15.1802
lfemur -7.97708 -2.95384 -13.5549
ltibia 44.4217
lfoot -29.4245 3.70618
ltoes -2.14454
19
root 0.119702 16.6947 -1.09475 11.7628 -88.4419 -24.6294
lowerback 26.8895 -1.91504 2.75506
upperback 3.11904 -2.27285 -2.30394
thorax -11.6722 -1.36782 -3.36089
lowerneck 5.84317 1.76756 -1.97413
upperneck 2.93359 2.1605 0.855118
head -0.093037 1.02697 0.544462
rclavicle 1.14301e-015 -3.18055e-015
rhumerus 58.3456 1.62602 -100.306
rradius 7.43898
rwrist 61.1421
rhand -20.6962 6.54752
rfingers 7.12502
rthumb 5.66765 -23.3567
lclavicle 1.14301e-015 -3.18055e-015
lhumerus 61.8077 8.11563 108.746
lradius 10.3991
lwrist -81.7893
lhand -16.1582 -0.1813
lfingers 7.12502
lthumb 10.0476 29.5588
rfemur 0.929577 -4.24768 15.6185
rtibia 35.3584
rfoot -25.3927 -1.56879
rtoes -15.4433
lfemur -8.29225 -2.01115 -13.2604
ltibia 45.4426
lfoot -29.728 2.98519
ltoes -2.35888
20
root 0.138004 16.6307 -1.08995 12.6256 -88.431 -25.7982
lowerback 27.5329 -1.92785 2.79992
upperback 3.11877 -2.26899 -2.2897
thorax -12.0114 -1.37501 -3.3644
lowerneck 6.02553 1.75363 -1.8783
upperneck 2.92883 2.14213 0.780088
head -0.121737 1.0178 0.5046
rclavicle 9.19379e-015 -6.36111e-015
rhumerus 58.1931 1.51579 -100.33
rradius 7.34606
rwrist 61.4096
rhand -20.8227 6.49449
rfingers 7.12502
rthumb 5.54555 -23.4129
lclavicle 9.19379e-015 -6.36111e-015
lhumerus 61.464 7.78944 107.917
lradius 10.5388
lwrist -80.8003
lhand -16.1323 -0.203968
lfingers 7.12502
lthumb 10.0726 29.535
rfemur 0.425871 -5.27624 15.209
rtibia 36.7444
rfoot -25.5901 -0.437221
rtoes -15.5752
lfemur -8.67473 -0.938662 -12.8766
ltibia 46.5564
lfoot -30.0166 2.6017
ltoes -3.20211
21
root 0.156514 16.5615 -1.08395 13.1151 -88.4358 -26.5914
lowerback 28.1832 -1.93356 2.81955
upperback 3.11155 -2.26094 -2.2636
thorax -12.3595 -1.37884 -3.34132
lowerneck 6.24687 1.73731 -1.82947
upperneck 2.8872 2.1173 0.712348
head -0.16884 1.00516 0.474577
rclavicle 7.95139e-015 -5.56597e-015
rhumerus 58.0689 1.41044 -100.321
rradius 7.22391
rwrist 61.6422
rhand -20.8704 6.47894
rfingers 7.12502
rthumb 5.49946 -23.4297
lclavicle 7.95139e-015 -5.56597e-015
lhumerus 61.1824 7.4876 107.178
lradius 10.6542
lwrist -79.8388
lhand -16.0003 -0.216388
lfingers 7.12502
lthumb 10.1998 29.5163
rfemur -0.132308 -6.25537 14.7819
rtibia 38.2263
rfoot -25.8241 0.665557
rtoes -15.7175
lfemur -9.09502 0.0729646 -12.5218
ltibia 47.7505
lfoot -30.3017 2.27274
ltoes -4.01751
